<svg width="43" height="23" viewBox="0 0 43 23" fill="none" xmlns="http://www.w3.org/2000/svg">
<g filter="url(#filter0_i_3_95)">
<path d="M5.5 12.12C4.732 12.12 4.068 11.94 3.508 11.58C2.948 11.212 2.52 10.692 2.224 10.02C1.928 9.34 1.78 8.528 1.78 7.584C1.78 6.616 1.936 5.788 2.248 5.1C2.56 4.412 3 3.888 3.568 3.528C4.136 3.16 4.796 2.976 5.548 2.976C6.108 2.976 6.62 3.088 7.084 3.312C7.556 3.536 7.944 3.832 8.248 4.2C8.56 4.568 8.748 4.96 8.812 5.376C8.82 5.44 8.816 5.484 8.8 5.508C8.792 5.532 8.764 5.552 8.716 5.568L7.852 5.7C7.812 5.708 7.78 5.704 7.756 5.688C7.74 5.664 7.728 5.628 7.72 5.58C7.664 5.26 7.536 4.972 7.336 4.716C7.136 4.452 6.88 4.244 6.568 4.092C6.264 3.932 5.92 3.852 5.536 3.852C4.992 3.852 4.528 3.992 4.144 4.272C3.76 4.544 3.468 4.956 3.268 5.508C3.076 6.052 2.98 6.72 2.98 7.512C2.98 8.344 3.076 9.04 3.268 9.6C3.468 10.152 3.76 10.564 4.144 10.836C4.536 11.108 5.008 11.244 5.56 11.244C5.952 11.244 6.292 11.18 6.58 11.052C6.868 10.916 7.108 10.74 7.3 10.524C7.492 10.3 7.64 10.064 7.744 9.816C7.848 9.56 7.904 9.312 7.912 9.072L7.924 8.352C7.94 8.272 7.9 8.232 7.804 8.232H5.848C5.8 8.232 5.764 8.224 5.74 8.208C5.724 8.184 5.716 8.148 5.716 8.1V7.584C5.716 7.512 5.756 7.476 5.836 7.476L8.812 7.488C8.868 7.488 8.912 7.5 8.944 7.524C8.976 7.548 8.992 7.584 8.992 7.632V11.844C8.992 11.9 8.98 11.94 8.956 11.964C8.932 11.988 8.896 12 8.848 12H8.572C8.516 12 8.468 11.992 8.428 11.976C8.396 11.96 8.372 11.92 8.356 11.856L8.224 10.74C8.216 10.708 8.2 10.692 8.176 10.692C8.16 10.692 8.14 10.712 8.116 10.752C7.964 10.992 7.772 11.216 7.54 11.424C7.308 11.632 7.024 11.8 6.688 11.928C6.352 12.056 5.956 12.12 5.5 12.12ZM17.3951 11.772C17.4191 11.828 17.4151 11.88 17.3831 11.928C17.3591 11.976 17.3191 12 17.2631 12H16.3871C16.2991 12 16.2351 11.952 16.1951 11.856L14.6471 8.076C14.6071 7.988 14.5111 7.944 14.3591 7.944H12.3311C12.2751 7.944 12.2351 7.956 12.2111 7.98C12.1951 8.004 12.1871 8.036 12.1871 8.076V11.808C12.1871 11.936 12.1191 12 11.9831 12H11.2031C11.1391 12 11.0951 11.988 11.0711 11.964C11.0471 11.932 11.0351 11.892 11.0351 11.844V3.264C11.0351 3.152 11.0831 3.096 11.1791 3.096H14.5271C15.4711 3.096 16.2031 3.292 16.7231 3.684C17.2511 4.068 17.5151 4.64 17.5151 5.4C17.5151 5.856 17.4271 6.244 17.2511 6.564C17.0751 6.876 16.8511 7.128 16.5791 7.32C16.3151 7.504 16.0431 7.64 15.7631 7.728C15.6991 7.736 15.6831 7.776 15.7151 7.848L17.3951 11.772ZM14.1911 7.104C14.8951 7.104 15.4231 6.976 15.7751 6.72C16.1351 6.464 16.3151 6.06 16.3151 5.508C16.3151 4.972 16.1551 4.576 15.8351 4.32C15.5231 4.064 15.0671 3.936 14.4671 3.936H12.3551C12.2431 3.936 12.1871 3.98 12.1871 4.068V6.948C12.1871 7.052 12.2231 7.104 12.2951 7.104H14.1911ZM19.3906 3.264C19.3906 3.152 19.4386 3.096 19.5346 3.096H24.9226C25.0026 3.096 25.0426 3.14 25.0426 3.228V3.84C25.0426 3.936 24.9906 3.984 24.8866 3.984H20.6986C20.5946 3.984 20.5426 4.032 20.5426 4.128V6.936C20.5426 7.024 20.5866 7.068 20.6746 7.068H23.7826C23.8706 7.068 23.9146 7.112 23.9146 7.2V7.836C23.9146 7.868 23.9066 7.896 23.8906 7.92C23.8746 7.936 23.8386 7.944 23.7826 7.944H20.6746C20.5866 7.944 20.5426 7.988 20.5426 8.076V10.992C20.5426 11.072 20.5826 11.112 20.6626 11.112H25.0666C25.1546 11.112 25.1986 11.152 25.1986 11.232V11.868C25.1986 11.908 25.1866 11.94 25.1626 11.964C25.1466 11.988 25.1146 12 25.0666 12H19.5586C19.4466 12 19.3906 11.944 19.3906 11.832V3.264ZM26.9257 3.264C26.9257 3.152 26.9737 3.096 27.0697 3.096H32.4577C32.5377 3.096 32.5777 3.14 32.5777 3.228V3.84C32.5777 3.936 32.5257 3.984 32.4217 3.984H28.2337C28.1297 3.984 28.0777 4.032 28.0777 4.128V6.936C28.0777 7.024 28.1217 7.068 28.2097 7.068H31.3177C31.4057 7.068 31.4497 7.112 31.4497 7.2V7.836C31.4497 7.868 31.4417 7.896 31.4257 7.92C31.4097 7.936 31.3737 7.944 31.3177 7.944H28.2097C28.1217 7.944 28.0777 7.988 28.0777 8.076V10.992C28.0777 11.072 28.1177 11.112 28.1977 11.112H32.6017C32.6897 11.112 32.7337 11.152 32.7337 11.232V11.868C32.7337 11.908 32.7217 11.94 32.6977 11.964C32.6817 11.988 32.6497 12 32.6017 12H27.0937C26.9817 12 26.9257 11.944 26.9257 11.832V3.264ZM41.0849 3.096C41.1729 3.096 41.2169 3.144 41.2169 3.24V11.856C41.2169 11.904 41.2009 11.94 41.1689 11.964C41.1449 11.988 41.1089 12 41.0609 12H40.4729C40.4249 12 40.3809 11.996 40.3409 11.988C40.3009 11.98 40.2609 11.952 40.2209 11.904L35.5889 5.172C35.5489 5.116 35.5169 5.092 35.4929 5.1C35.4689 5.108 35.4569 5.136 35.4569 5.184V11.844C35.4569 11.948 35.4009 12 35.2889 12H34.6169C34.5129 12 34.4609 11.948 34.4609 11.844V3.264C34.4609 3.152 34.5129 3.096 34.6169 3.096H35.3009C35.3649 3.096 35.4129 3.104 35.4449 3.12C35.4769 3.128 35.5129 3.16 35.5529 3.216L40.0529 9.804C40.1009 9.86 40.1409 9.88 40.1729 9.864C40.2129 9.848 40.2329 9.816 40.2329 9.768V3.24C40.2329 3.144 40.2809 3.096 40.3769 3.096H41.0849Z" fill="#00FF29"/>
</g>
<path opacity="0.8" d="M8.22678 18.928C8.06145 18.928 7.97878 18.848 7.97878 18.688C7.97878 18.6347 8.01078 18.5707 8.07478 18.496C8.13878 18.4213 8.20811 18.3493 8.28278 18.28C8.35745 18.216 8.41345 18.1707 8.45078 18.144C8.47745 18.0747 8.49611 18.0107 8.50678 17.952C8.52278 17.8933 8.53611 17.8293 8.54678 17.76C8.58411 17.5253 8.65078 17.288 8.74678 17.048C8.84278 16.8027 8.93878 16.5733 9.03478 16.36C8.90145 16.2907 8.79211 16.2 8.70678 16.088C8.62678 15.9707 8.58678 15.8347 8.58678 15.68C8.58678 15.6427 8.59478 15.5813 8.61078 15.496C8.62678 15.4053 8.65345 15.36 8.69078 15.36C8.73878 15.36 8.76278 15.4 8.76278 15.48C8.76278 15.56 8.76278 15.616 8.76278 15.648C8.76278 15.76 8.79745 15.8613 8.86678 15.952C8.94145 16.0427 9.02411 16.112 9.11478 16.16C9.39211 15.5573 9.72545 14.9787 10.1148 14.424C10.5041 13.8693 10.9281 13.3547 11.3868 12.88C11.5628 12.6933 11.7494 12.5387 11.9468 12.416C12.1441 12.2933 12.3734 12.232 12.6348 12.232C12.8214 12.232 12.9681 12.2933 13.0748 12.416C13.1868 12.5333 13.2428 12.6827 13.2428 12.864C13.2428 12.9333 13.2348 13 13.2188 13.064C13.1121 13.5067 12.9494 13.92 12.7308 14.304C12.5174 14.6827 12.2454 15.0293 11.9148 15.344C11.7228 15.5253 11.4988 15.7067 11.2428 15.888C10.9921 16.064 10.7254 16.2107 10.4428 16.328C10.1654 16.4453 9.88811 16.504 9.61078 16.504C9.55211 16.504 9.49345 16.5013 9.43478 16.496C9.37611 16.4853 9.32011 16.4693 9.26678 16.448C9.16011 16.6987 9.06145 16.9493 8.97078 17.2C8.88011 17.4507 8.80811 17.712 8.75478 17.984C9.16545 17.7333 9.61078 17.552 10.0908 17.44C10.5708 17.328 11.0508 17.272 11.5308 17.272C11.6588 17.272 11.8054 17.296 11.9708 17.344C12.1361 17.3867 12.2774 17.456 12.3948 17.552C12.5174 17.648 12.5788 17.7787 12.5788 17.944C12.5788 17.9547 12.5734 17.9893 12.5628 18.048C12.5574 18.1067 12.5468 18.1413 12.5308 18.152C12.4881 18.0987 12.4588 18.048 12.4428 18C12.3681 17.808 12.2508 17.688 12.0908 17.64C11.9308 17.5867 11.7548 17.56 11.5628 17.56C11.1414 17.56 10.6988 17.6027 10.2348 17.688C9.77611 17.768 9.36011 17.9173 8.98678 18.136C8.94945 18.1573 8.90945 18.176 8.86678 18.192C8.82945 18.2133 8.78945 18.232 8.74678 18.248C8.73078 18.3387 8.70411 18.4373 8.66678 18.544C8.62945 18.6507 8.57611 18.7413 8.50678 18.816C8.43745 18.8907 8.34411 18.928 8.22678 18.928ZM9.59478 16.296C9.84545 16.296 10.1014 16.2347 10.3628 16.112C10.6294 15.984 10.8828 15.832 11.1228 15.656C11.3628 15.48 11.5681 15.312 11.7388 15.152C12.0534 14.8533 12.3121 14.5253 12.5148 14.168C12.7174 13.8107 12.8694 13.4213 12.9708 13C12.9761 12.984 12.9788 12.968 12.9788 12.952C12.9788 12.936 12.9788 12.92 12.9788 12.904C12.9788 12.8133 12.9574 12.7147 12.9148 12.608C12.8774 12.496 12.8001 12.44 12.6828 12.44C12.5014 12.44 12.3014 12.512 12.0828 12.656C11.8694 12.8 11.6481 12.992 11.4188 13.232C11.1948 13.4667 10.9734 13.728 10.7548 14.016C10.5414 14.2987 10.3414 14.584 10.1548 14.872C9.96811 15.16 9.80545 15.4267 9.66678 15.672C9.52811 15.912 9.42411 16.1067 9.35478 16.256C9.38145 16.272 9.42145 16.2827 9.47478 16.288C9.52811 16.2933 9.56811 16.296 9.59478 16.296ZM17.4023 14.856C17.365 14.856 17.3303 14.848 17.2983 14.832C17.2663 14.8107 17.2503 14.7813 17.2503 14.744C17.2503 14.7013 17.269 14.6373 17.3063 14.552C17.3437 14.4613 17.3917 14.3707 17.4503 14.28C17.509 14.1893 17.5703 14.112 17.6343 14.048C17.7037 13.984 17.765 13.952 17.8183 13.952C17.861 13.952 17.8823 13.9787 17.8823 14.032C17.8823 14.096 17.8477 14.1467 17.7783 14.184C17.7357 14.2107 17.6983 14.2613 17.6663 14.336C17.6397 14.4107 17.6157 14.488 17.5943 14.568C17.5783 14.648 17.5623 14.712 17.5463 14.76C17.5303 14.824 17.4823 14.856 17.4023 14.856ZM17.2423 17.92C17.1197 17.92 17.029 17.8693 16.9703 17.768C16.9117 17.6613 16.8743 17.5413 16.8583 17.408C16.8423 17.2693 16.8343 17.1573 16.8343 17.072C16.8343 17.0187 16.8397 16.92 16.8503 16.776C16.8663 16.632 16.885 16.472 16.9063 16.296C16.933 16.1147 16.9623 15.9387 16.9943 15.768C17.0317 15.5973 17.0743 15.456 17.1223 15.344C17.1703 15.232 17.221 15.176 17.2743 15.176C17.317 15.176 17.3543 15.1893 17.3863 15.216C17.4183 15.2427 17.4343 15.2773 17.4343 15.32C17.4343 15.384 17.4157 15.4853 17.3783 15.624C17.341 15.7627 17.2957 15.92 17.2423 16.096C17.1943 16.272 17.149 16.4507 17.1063 16.632C17.069 16.808 17.0503 16.968 17.0503 17.112C17.0503 17.1493 17.053 17.2133 17.0583 17.304C17.069 17.3947 17.0877 17.48 17.1143 17.56C17.141 17.6347 17.1837 17.672 17.2423 17.672C17.3223 17.672 17.4103 17.6133 17.5063 17.496C17.6023 17.3787 17.6983 17.2347 17.7943 17.064C17.8957 16.888 17.989 16.7147 18.0743 16.544C18.1597 16.368 18.2317 16.2213 18.2903 16.104C18.349 15.9867 18.389 15.928 18.4103 15.928C18.437 15.928 18.453 15.9387 18.4583 15.96C18.469 15.976 18.4743 15.9947 18.4743 16.016C18.4743 16.0853 18.445 16.1973 18.3863 16.352C18.3277 16.5013 18.2503 16.6667 18.1543 16.848C18.0583 17.024 17.9543 17.1947 17.8423 17.36C17.7303 17.52 17.621 17.6533 17.5143 17.76C17.4077 17.8667 17.317 17.92 17.2423 17.92ZM22.4385 18.032C22.4012 18.032 22.3719 18.0187 22.3505 17.992C22.3345 17.96 22.3265 17.9253 22.3265 17.888C22.3265 17.5893 22.3425 17.2907 22.3745 16.992C22.4119 16.688 22.4305 16.3867 22.4305 16.088C22.4305 16.056 22.4279 15.9947 22.4225 15.904C22.4225 15.808 22.4172 15.7067 22.4065 15.6C22.4012 15.488 22.3905 15.3893 22.3745 15.304C22.3639 15.2133 22.3479 15.1573 22.3265 15.136C22.3052 15.12 22.2839 15.1013 22.2625 15.08C22.2465 15.0587 22.2385 15.032 22.2385 15C22.2385 14.968 22.2519 14.944 22.2785 14.928C22.3105 14.9067 22.3425 14.896 22.3745 14.896C22.4652 14.896 22.5292 14.9387 22.5665 15.024C22.6092 15.104 22.6359 15.2027 22.6465 15.32C22.6625 15.4373 22.6705 15.5493 22.6705 15.656C22.6705 16.1573 22.6545 16.6613 22.6225 17.168C22.6439 17.1093 22.6865 17.0053 22.7505 16.856C22.8145 16.7067 22.8919 16.5387 22.9825 16.352C23.0732 16.1653 23.1665 15.9867 23.2625 15.816C23.3639 15.64 23.4572 15.496 23.5425 15.384C23.6279 15.2667 23.6972 15.208 23.7505 15.208C23.8252 15.208 23.8785 15.256 23.9105 15.352C23.9479 15.4427 23.9665 15.5173 23.9665 15.576C23.9665 15.8213 23.9532 16.0667 23.9265 16.312C23.9052 16.5573 23.8945 16.8053 23.8945 17.056C23.8945 17.088 23.8972 17.1493 23.9025 17.24C23.9132 17.3253 23.9292 17.408 23.9505 17.488C23.9772 17.5627 24.0172 17.6 24.0705 17.6C24.1132 17.6 24.1692 17.552 24.2385 17.456C24.3079 17.36 24.3799 17.248 24.4545 17.12C24.5292 16.9867 24.5959 16.8613 24.6545 16.744C24.7132 16.6267 24.7532 16.544 24.7745 16.496C24.7799 16.4853 24.7852 16.4747 24.7905 16.464C24.7959 16.448 24.8039 16.44 24.8145 16.44C24.8412 16.44 24.8572 16.4613 24.8625 16.504C24.8679 16.5413 24.8705 16.5653 24.8705 16.576C24.8705 16.6293 24.8412 16.7227 24.7825 16.856C24.7239 16.9893 24.6492 17.1307 24.5585 17.28C24.4732 17.4293 24.3825 17.5573 24.2865 17.664C24.1959 17.7707 24.1132 17.824 24.0385 17.824C23.9319 17.824 23.8519 17.7813 23.7985 17.696C23.7505 17.6107 23.7185 17.5147 23.7025 17.408C23.6865 17.296 23.6785 17.2027 23.6785 17.128C23.6785 16.952 23.6865 16.776 23.7025 16.6C23.7239 16.424 23.7345 16.248 23.7345 16.072C23.7345 16.056 23.7319 16.016 23.7265 15.952C23.7265 15.888 23.7239 15.8267 23.7185 15.768C23.7132 15.7093 23.6999 15.68 23.6785 15.68C23.6252 15.68 23.5559 15.7467 23.4705 15.88C23.3905 16.0133 23.3025 16.1813 23.2065 16.384C23.1159 16.5867 23.0252 16.7973 22.9345 17.016C22.8439 17.2293 22.7639 17.4213 22.6945 17.592C22.6305 17.7627 22.5852 17.8773 22.5585 17.936C22.5479 17.9573 22.5319 17.9787 22.5105 18C22.4945 18.0213 22.4705 18.032 22.4385 18.032ZM29.1116 18C28.9676 18 28.8556 17.936 28.7756 17.808C28.7009 17.68 28.6503 17.5253 28.6236 17.344C28.5969 17.1573 28.5836 16.984 28.5836 16.824C28.5836 16.7493 28.5836 16.6827 28.5836 16.624C28.5889 16.56 28.5943 16.5067 28.5996 16.464H28.5756C28.5116 16.464 28.4796 16.44 28.4796 16.392C28.4903 16.3653 28.5089 16.344 28.5356 16.328C28.5676 16.3067 28.5969 16.2933 28.6236 16.288C28.6503 16.0533 28.7009 15.8133 28.7756 15.568C28.8503 15.3227 28.9516 15.1013 29.0796 14.904V14.856C29.0796 14.8027 29.1116 14.7707 29.1756 14.76C29.2023 14.7333 29.2289 14.704 29.2556 14.672C29.2876 14.6347 29.3223 14.616 29.3596 14.616C29.4023 14.616 29.4343 14.6347 29.4556 14.672C29.4823 14.704 29.4849 14.7387 29.4636 14.776C29.5649 14.7973 29.6556 14.84 29.7356 14.904C29.8209 14.9627 29.8636 15.0507 29.8636 15.168C29.8636 15.3227 29.8049 15.4827 29.6876 15.648C29.5756 15.808 29.4396 15.9547 29.2796 16.088C29.1249 16.216 28.9836 16.312 28.8556 16.376C28.8396 16.504 28.8289 16.6347 28.8236 16.768C28.8236 16.896 28.8236 17.024 28.8236 17.152C28.8236 17.216 28.8263 17.296 28.8316 17.392C28.8423 17.488 28.8663 17.5733 28.9036 17.648C28.9463 17.7227 29.0156 17.76 29.1116 17.76C29.2129 17.76 29.3116 17.7147 29.4076 17.624C29.5089 17.5333 29.6049 17.4187 29.6956 17.28C29.7916 17.136 29.8796 16.9867 29.9596 16.832C30.0396 16.6773 30.1089 16.5307 30.1676 16.392C30.2263 16.2533 30.2689 16.1467 30.2956 16.072C30.3063 16.0453 30.3196 16.0213 30.3356 16C30.3516 15.9733 30.3756 15.96 30.4076 15.96C30.4503 15.96 30.4716 15.9867 30.4716 16.04C30.4716 16.1253 30.4423 16.248 30.3836 16.408C30.3249 16.5627 30.2449 16.7307 30.1436 16.912C30.0476 17.0933 29.9383 17.2667 29.8156 17.432C29.6983 17.5973 29.5783 17.7333 29.4556 17.84C29.3329 17.9467 29.2183 18 29.1116 18ZM28.8956 16.128C28.9969 16.064 29.0983 15.984 29.1996 15.888C29.3009 15.792 29.3863 15.6827 29.4556 15.56C29.5249 15.4373 29.5596 15.3147 29.5596 15.192C29.5596 15.128 29.5276 15.0827 29.4636 15.056C29.3996 15.024 29.3436 15.0053 29.2956 15C29.1943 15.1653 29.1089 15.3467 29.0396 15.544C28.9756 15.7413 28.9276 15.936 28.8956 16.128ZM34.6525 18.024C34.5565 18.024 34.5085 17.976 34.5085 17.88C34.5085 17.7893 34.5405 17.688 34.6045 17.576C34.6738 17.4587 34.7565 17.3413 34.8525 17.224C34.9485 17.1013 35.0445 16.9893 35.1405 16.888C35.2418 16.7867 35.3245 16.704 35.3885 16.64C35.3138 16.6027 35.2205 16.5707 35.1085 16.544C35.0018 16.512 34.8925 16.4773 34.7805 16.44C34.6738 16.3973 34.5831 16.344 34.5085 16.28C34.4391 16.2107 34.4045 16.12 34.4045 16.008C34.4045 15.8907 34.4471 15.7573 34.5325 15.608C34.6231 15.4587 34.7378 15.3147 34.8765 15.176C35.0151 15.032 35.1565 14.9147 35.3005 14.824C35.4445 14.728 35.5725 14.68 35.6845 14.68C35.7538 14.68 35.8205 14.6987 35.8845 14.736C35.9538 14.768 35.9885 14.824 35.9885 14.904C35.9885 14.9253 35.9831 14.9547 35.9725 14.992C35.9618 15.0293 35.9431 15.048 35.9165 15.048C35.8791 15.048 35.8471 15.0293 35.8205 14.992C35.7991 14.9493 35.7725 14.928 35.7405 14.928C35.6498 14.928 35.5405 14.9653 35.4125 15.04C35.2898 15.1147 35.1698 15.2107 35.0525 15.328C34.9351 15.44 34.8365 15.5573 34.7565 15.68C34.6818 15.8027 34.6445 15.912 34.6445 16.008C34.6445 16.072 34.6818 16.128 34.7565 16.176C34.8311 16.224 34.9191 16.264 35.0205 16.296C35.1271 16.328 35.2311 16.36 35.3325 16.392C35.4338 16.4187 35.5085 16.448 35.5565 16.48C35.5831 16.4533 35.6285 16.4107 35.6925 16.352C35.7565 16.2933 35.8285 16.2293 35.9085 16.16C35.9885 16.0907 36.0605 16.032 36.1245 15.984C36.1938 15.936 36.2418 15.912 36.2685 15.912C36.2898 15.912 36.3005 15.9227 36.3005 15.944C36.3005 15.9707 36.2738 16.016 36.2205 16.08C36.1725 16.1387 36.1111 16.2027 36.0365 16.272C35.9671 16.3413 35.9005 16.408 35.8365 16.472C35.7725 16.5307 35.7271 16.5733 35.7005 16.6C35.7485 16.68 35.7725 16.7653 35.7725 16.856C35.7725 16.9467 35.7325 17.0587 35.6525 17.192C35.5725 17.32 35.4711 17.448 35.3485 17.576C35.2311 17.704 35.1085 17.8107 34.9805 17.896C34.8525 17.9813 34.7431 18.024 34.6525 18.024ZM34.9565 17.616C35.0045 17.616 35.0605 17.5893 35.1245 17.536C35.1938 17.4827 35.2605 17.416 35.3245 17.336C35.3885 17.256 35.4418 17.1787 35.4845 17.104C35.5325 17.024 35.5565 16.96 35.5565 16.912C35.5565 16.8587 35.5458 16.8187 35.5245 16.792C35.4925 16.824 35.4418 16.8747 35.3725 16.944C35.3085 17.0133 35.2391 17.0907 35.1645 17.176C35.0951 17.256 35.0338 17.3333 34.9805 17.408C34.9325 17.4773 34.9085 17.5307 34.9085 17.568C34.9085 17.6 34.9245 17.616 34.9565 17.616Z" fill="#0037FC"/>
<line x1="14" y1="22.5" x2="28" y2="22.5" stroke="#597DFD"/>
<line y1="20.5" x2="14" y2="20.5" stroke="#597DFD"/>
<line x1="28" y1="20.5" x2="42" y2="20.5" stroke="#597DFD"/>
<defs>
<filter id="filter0_i_3_95" x="1.78" y="2.976" width="39.4369" height="13.144" filterUnits="userSpaceOnUse" color-interpolation-filters="sRGB">
<feFlood flood-opacity="0" result="BackgroundImageFix"/>
<feBlend mode="normal" in="SourceGraphic" in2="BackgroundImageFix" result="shape"/>
<feColorMatrix in="SourceAlpha" type="matrix" values="0 0 0 0 0 0 0 0 0 0 0 0 0 0 0 0 0 0 127 0" result="hardAlpha"/>
<feOffset dy="4"/>
<feGaussianBlur stdDeviation="2"/>
<feComposite in2="hardAlpha" operator="arithmetic" k2="-1" k3="1"/>
<feColorMatrix type="matrix" values="0 0 0 0 0 0 0 0 0 0 0 0 0 0 0 0 0 0 0.25 0"/>
<feBlend mode="normal" in2="shape" result="effect1_innerShadow_3_95"/>
</filter>
</defs>
</svg>
